# xmcd
#
# Track frame offsets:
#	150
#	18256
#	30275
#	45639
#	58412
#	75555
#	90177
#	107711
#	125112
#	140880
#	178393
#	192500
#	204187
#	220207
#	234761
#	247147
#	260730
#
# Disc length: 3673 seconds
#
# Revision: 7
# Processed by: cddbd v1.5.2PL0 Copyright (c) Steve Scherf et al.
# Submitted via: EasyCDDAExtractor 12.0.0.1
#
DISCID=f40e5711
DTITLE=Various Artist - Ultimate Cheese Party CD2
DYEAR=2003
DGENRE=Pop
TTITLE0=Dexys Midnight Runners - Come On Eileen
TTITLE1=Chuck Berry - You Never Can Tell
TTITLE2=The Gap Band - Oops Upside Your Head
TTITLE3=Right Said Fred - I'm Too Sexy
TTITLE4=Tom Jones With Mousse T. - SexBomb
TTITLE5=Da Muttz - Wassuup!
TTITLE6=Hot Chocolate - You Sexy Thing
TTITLE7=Belle and Spurling - Sven Sven Sven
TTITLE8=The Weather Girls - It's Raining Men
TTITLE9=Sister Sledge - We Are Family
TTITLE10=Grandad Roberts And His Son Elvis - Meat Pie, Sausage Roll
TTITLE11=Buster Bloodvessel - Come On England
TTITLE12=Shabba Ranks - Mr. Lover Man
TTITLE13=Baha Men - Who Let The Dogs Out
TTITLE14=Bad Manners - Lip Up Fatty
TTITLE15=Shakin' Stevens - This Ole House
TTITLE16=Afro Man - Because I Got High (Clean)
EXTD=YEAR: 2003
EXTT0=
EXTT1=
EXTT2=
EXTT3=
EXTT4=
EXTT5=
EXTT6=
EXTT7=
EXTT8=
EXTT9=
EXTT10=
EXTT11=
EXTT12=
EXTT13=
EXTT14=
EXTT15=
EXTT16=
PLAYORDER=
